<svg width="137" height="24" viewBox="0 0 137 24" fill="none" xmlns="http://www.w3.org/2000/svg">
<path d="M36.9485 7.41266C35.2286 5.65063 32.8563 4.55696 30.2468 4.55696C25.0277 4.55696 20.7576 8.93165 20.7576 14.2785C20.7576 16.9519 21.8251 19.3823 23.545 21.1443C25.2649 22.9063 27.6372 24 30.2468 24C32.8563 24 35.2286 22.9063 36.9485 21.1443C38.6684 19.3823 39.7359 16.9519 39.7359 14.2785C39.7359 11.6051 38.6684 9.17468 36.9485 7.41266ZM30.2468 21.5696C26.3265 21.5696 23.1299 18.3008 23.1299 14.2785C23.1299 10.2562 26.3265 6.98734 30.2468 6.98734C34.167 6.98734 37.3636 10.2562 37.3636 14.2785C37.3636 18.3008 34.1729 21.5696 30.2468 21.5696Z" fill="#0C0C0D"/>
<path d="M78.4636 7.41266C76.7437 5.65063 74.3714 4.55696 71.7619 4.55696C66.5429 4.55696 62.2727 8.93165 62.2727 14.2785C62.2727 16.9519 63.3403 19.3823 65.0602 21.1443C66.7801 22.9063 69.1524 24 71.7619 24C74.3714 24 76.7437 22.9063 78.4636 21.1443C80.1836 19.3823 81.2511 16.9519 81.2511 14.2785C81.2511 11.6051 80.1836 9.17468 78.4636 7.41266ZM71.7619 21.5696C67.8417 21.5696 64.645 18.3008 64.645 14.2785C64.645 10.2562 67.8417 6.98734 71.7619 6.98734C75.6821 6.98734 78.8788 10.2562 78.8788 14.2785C78.8788 18.3008 75.6881 21.5696 71.7619 21.5696Z" fill="#0C0C0D"/>
<path d="M120.987 4.55696H118.615V24H120.987V4.55696Z" fill="#0C0C0D"/>
<path d="M120.987 1.21519C120.987 0.544059 120.456 0 119.801 0C119.146 0 118.615 0.544059 118.615 1.21519C118.615 1.88632 119.146 2.43038 119.801 2.43038C120.456 2.43038 120.987 1.88632 120.987 1.21519Z" fill="#0C0C0D"/>
<path d="M9.93398 4.55089C6.76697 4.55089 3.98545 6.29468 2.37229 8.9438V1.30376e-06H0V24H2.37229V19.601C3.98545 22.244 6.76697 23.9939 9.93398 23.9939C14.9336 23.9939 18.9784 19.6375 18.9784 14.2724C18.9784 8.90734 14.9336 4.55089 9.93398 4.55089ZM9.45952 21.5635C5.54524 21.5635 2.37229 18.2947 2.37229 14.2724C2.37229 10.2501 5.54524 6.98127 9.45952 6.98127C13.3738 6.98127 16.5468 10.2441 16.5468 14.2724C16.5468 18.3008 13.3738 21.5635 9.45952 21.5635Z" fill="#0C0C0D"/>
<path d="M51.4491 4.55089C48.2821 4.55089 45.5006 6.29468 43.8874 8.9438V1.30376e-06H41.5152V24H43.8874V19.601C45.5006 22.244 48.2821 23.9939 51.4491 23.9939C56.4487 23.9939 60.4935 19.6375 60.4935 14.2724C60.4935 8.90734 56.4487 4.55089 51.4491 4.55089ZM50.9747 21.5635C47.0604 21.5635 43.8874 18.2947 43.8874 14.2724C43.8874 10.2501 47.0604 6.98127 50.9747 6.98127C54.889 6.98127 58.0619 10.2441 58.0619 14.2724C58.0619 18.3008 54.889 21.5635 50.9747 21.5635Z" fill="#0C0C0D"/>
<path fill-rule="evenodd" clip-rule="evenodd" d="M115.649 12.4557V24H113.277V13.0633C113.277 11.3863 112.613 9.86734 111.539 8.7676C110.466 7.66785 108.983 6.98734 107.346 6.98734C104.073 6.98734 101.416 9.70937 101.416 13.0633V24H99.0433V1.30376e-06H101.416V8.25114C102.78 6.03342 105.188 4.55696 107.939 4.55696C110.069 4.55696 111.996 5.43798 113.39 6.8719C114.783 8.29975 115.649 10.2744 115.649 12.4557Z" fill="#0C0C0D"/>
<path d="M133.442 6.98734C134.734 6.98734 135.95 7.33975 137 7.96557V5.27393C135.903 4.81215 134.699 4.55696 133.442 4.55696C128.223 4.55696 123.952 8.93165 123.952 14.2785C123.952 16.9519 125.02 19.3823 126.74 21.1443C128.46 22.9063 130.832 24 133.442 24C134.699 24 135.903 23.7448 137 23.283V20.5914C135.95 21.2172 134.734 21.5696 133.442 21.5696C129.515 21.5696 126.325 18.3008 126.325 14.2785C126.325 10.2562 129.515 6.98734 133.442 6.98734Z" fill="#0C0C0D"/>
<path d="M92.5195 6.98734C93.8124 6.98734 95.0282 7.33975 96.0779 7.96557V5.27393C94.9807 4.81215 93.7768 4.55696 92.5195 4.55696C87.3004 4.55696 83.0303 8.93165 83.0303 14.2785C83.0303 16.9519 84.0978 19.3823 85.8177 21.1443C87.5377 22.9063 89.91 24 92.5195 24C93.7768 24 94.9807 23.7448 96.0779 23.283V20.5914C95.0282 21.2172 93.8124 21.5696 92.5195 21.5696C88.5933 21.5696 85.4026 18.3008 85.4026 14.2785C85.4026 10.2562 88.5933 6.98734 92.5195 6.98734Z" fill="#0C0C0D"/>
</svg>
