<svg width="273" height="67" viewBox="0 0 273 67" fill="none" xmlns="http://www.w3.org/2000/svg">
<path fill-rule="evenodd" clip-rule="evenodd" d="M162.097 9.00858C162.623 10.3237 161.834 11.2443 160.519 11.5731L156.245 12.3621C154.995 12.6252 154.272 12.0991 153.614 10.8497C152.825 9.00858 151.444 8.08799 149.274 8.08799C147.468 8.08799 146.098 8.7029 145.323 9.98071C144.831 10.7923 144.068 11.4983 143.119 11.4983H137.662C136.499 11.4983 135.565 10.5013 135.832 9.36908C137.198 3.56817 142.25 0 148.683 0C155.127 0 160.124 3.09054 162.097 9.00858ZM135.469 16.1695C135.467 16.1695 135.466 16.171 135.466 16.1727C135.466 16.1745 135.464 16.176 135.462 16.176H132.507C131.126 16.176 130.337 16.9651 130.337 18.3459V21.6995C130.337 23.1461 131.126 23.8694 132.507 23.8694H133.466C134.57 23.8694 135.466 24.7649 135.466 25.8694V48.6595C135.466 50.1061 136.255 50.8294 137.636 50.8294H142.436C143.882 50.8294 144.606 50.1061 144.606 48.6595V25.8694C144.606 24.7649 145.501 23.8694 146.606 23.8694H154.929C156.376 23.8694 157.099 23.1461 157.099 21.6995V18.3459C157.099 16.9651 156.376 16.176 154.929 16.176H144.609C144.607 16.176 144.606 16.1745 144.606 16.1727C144.606 16.171 144.604 16.1695 144.602 16.1695H135.469ZM22.0956 40.8345C22.0956 38.8618 20.7804 38.0727 17.8214 37.4809L11.5088 36.2316C4.73597 34.8507 1.38241 31.9574 1.38241 26.3024C1.38241 19.9241 6.7744 15.5184 15.0597 15.5184C19.6626 15.5184 24.2655 17.2281 27.1588 20.4501C28.0794 21.568 27.6848 22.7516 26.4355 23.4091L23.4764 25.053C22.2928 25.6449 21.5038 25.3818 20.5174 24.5928C19.005 23.2776 17.0323 22.6201 14.8624 22.6201C11.3116 22.6201 9.4704 24.1325 9.4704 26.1051C9.4704 27.9463 10.8513 28.7354 13.5473 29.2614L19.9256 30.5108C26.6327 31.8259 30.1178 34.1931 30.1178 40.6372C30.1178 47.8046 24.3313 51.487 15.9802 51.487C8.48406 51.487 2.56602 49.054 0.198802 42.8072C-0.393002 41.4921 0.39607 40.5057 1.77695 40.2427L5.78806 39.4536C6.92043 39.2649 7.69169 39.678 8.44731 40.5779C8.51643 40.6602 8.57606 40.7506 8.63082 40.8431C10.0935 43.313 12.6908 44.5168 16.1118 44.5168C19.4653 44.5168 22.0956 43.3332 22.0956 40.8345ZM57.6357 18.3459C57.6357 16.9651 58.4247 16.176 59.8056 16.176H64.6058C66.0524 16.176 66.7757 16.9651 66.7757 18.3459V48.3964C66.7757 48.6764 66.7715 48.9531 66.763 49.2266C66.7313 50.2501 65.8649 51.0238 64.841 51.0238H59.8067C58.5608 51.0238 57.6162 49.8915 57.6339 48.6457C57.6351 48.5632 57.6357 48.4801 57.6357 48.3964C57.6357 47.6073 56.5677 47.2157 55.9699 47.7309C53.8777 49.5338 51.0794 50.6321 47.575 50.6321C39.224 50.6321 33.7662 44.7799 33.7662 36.4288V18.3459C33.7662 16.9651 34.5553 16.176 35.9362 16.176H40.7364C42.183 16.176 42.9063 16.9651 42.9063 18.3459V35.311C42.9063 39.8482 45.7338 42.8729 50.2052 42.8729C54.9397 42.8729 57.6357 39.3879 57.6357 35.4425V18.3459ZM54.5819 56.2887C55.0035 55.9333 55.5217 55.695 56.0731 55.695H62.758C64.143 55.695 65.104 57.0753 64.4158 58.2772C61.3572 63.6184 55.5468 66.3478 48.2983 66.3478C40.1446 66.3478 34.095 63.4546 30.4127 57.405C29.6894 56.1557 29.9524 55.1693 31.136 54.446L34.7526 52.2103C35.9362 51.5527 36.9883 51.8158 37.7773 52.9336C40.1446 56.5502 43.0378 58.3256 48.2325 58.3256C50.7162 58.3256 52.9282 57.6822 54.5819 56.2887ZM128.625 29.7217C128.625 21.4365 123.364 15.5184 114.948 15.5184C110.955 15.5184 107.891 16.8639 105.756 19.063C104.607 20.2465 102.305 20.3062 101.126 19.1531C98.7777 16.8573 95.5263 15.5184 91.5385 15.5184C87.7796 15.5184 84.8497 16.8034 82.7488 18.8797C82.2523 19.3703 81.2806 19.044 81.2806 18.3459C81.2806 16.9651 80.5573 16.176 79.1106 16.176H74.7708C73.3241 16.176 72.6008 16.9651 72.6008 18.3459V48.6595C72.6008 50.1061 73.3241 50.8294 74.7708 50.8294H79.5709C80.9518 50.8294 81.7409 50.1061 81.7409 48.6595V30.7738C81.7409 26.8285 84.2396 23.3434 88.7768 23.3434C93.1167 23.3434 96.0757 26.3682 96.0757 30.8396V48.6595C96.0757 50.1061 96.799 50.8294 98.1799 50.8294H103.046C104.427 50.8294 105.15 50.1061 105.15 48.6595V30.7738C105.15 26.8285 107.649 23.3434 112.252 23.3434C116.592 23.3434 119.485 26.3682 119.485 30.8396V48.6595C119.485 50.1061 120.274 50.8294 121.655 50.8294H126.455C127.902 50.8294 128.625 50.1061 128.625 48.6595V29.7217ZM193.039 33.5356C193.039 22.6201 185.345 15.5184 175.284 15.5184C165.224 15.5184 157.596 22.6201 157.596 33.5356C157.596 44.3853 165.224 51.487 175.284 51.487C185.345 51.487 193.039 44.3853 193.039 33.5356ZM175.284 23.6064C180.085 23.6064 183.899 26.8285 183.899 33.5356C183.899 40.1769 180.085 43.399 175.284 43.399C170.55 43.399 166.736 40.1769 166.736 33.5356C166.736 26.8285 170.55 23.6064 175.284 23.6064ZM217.061 15.5184C225.675 15.5184 233.171 22.6201 233.171 33.5356C233.171 44.3853 225.675 51.487 217.061 51.487C213.467 51.487 210.354 50.1639 207.91 47.9247C207.24 47.3108 206.014 47.7506 206.014 48.6594C206.014 50.1061 205.225 50.8294 203.844 50.8294H199.899C198.518 50.8294 197.729 50.1061 197.729 48.6594V18.1695C197.729 17.0649 198.624 16.1695 199.729 16.1695H205.782C206.382 16.1695 206.869 16.6561 206.869 17.2564C206.869 18.2566 208.17 18.7808 208.97 18.1813C211.242 16.48 214.004 15.5184 217.061 15.5184ZM204.869 11.4983C205.974 11.4983 206.869 10.6029 206.869 9.49832V2.82749C206.869 1.44661 206.146 0.657544 204.699 0.657544H199.899C198.518 0.657544 197.729 1.44661 197.729 2.82749V9.49832C197.729 10.6029 198.624 11.4983 199.729 11.4983H204.869ZM215.483 43.399C220.217 43.399 224.031 39.9796 224.031 33.5356C224.031 27.0257 220.217 23.6064 215.483 23.6064C210.683 23.6064 206.869 27.0257 206.869 33.5356C206.869 39.9796 210.683 43.399 215.483 43.399ZM272.025 33.5356C272.025 22.6201 264.332 15.5184 254.271 15.5184C244.211 15.5184 236.583 22.6201 236.583 33.5356C236.583 44.3853 244.211 51.487 254.271 51.487C264.332 51.487 272.025 44.3853 272.025 33.5356ZM254.271 23.6064C259.072 23.6064 262.885 26.8284 262.885 33.5356C262.885 40.1769 259.072 43.399 254.271 43.399C249.537 43.399 245.723 40.1769 245.723 33.5356C245.723 26.8284 249.537 23.6064 254.271 23.6064Z" fill="#BEC4C9"/>
</svg>
